PathFileType	4	(X/Y/Z)	Walk5.trc
DataRate	CameraRate	NumFrames	NumMarkers	Units	OrigDataRate	OrigDataStartFrame	OrigNumFrames
200.000000	200.000000	9	59	mm	200.000000	238	541
Frame#	Times		LFHD		RFHD		CLAV		STRN		LASI		RASI		RACR1		RUA1		RElbow		RFA1		RWRR		RWRU		RCAR		LACR1		LUA1		LElbow		LFA1		LWRR		LWRU		LCAR		RTH3		RTH2		RMFC		RTB1		RTB3		RTB2		RTB4		LTH1		LTH3		LTH2		LMFC		LTB1		LTB2		LTB4		LMT1		RTH4		RToe		RMT1		LTH4		RTH1		RLFC		RElbowM		RMMAL		LMT5		RBHD		LTB3		RCAL		LToe		LLFC		RBack		RPSI		C7		LMMAL		T10		LPSI		LLMAL		LCAL		LBHD		LElbowM
			X1	Y1	Z1	X2	Y2	Z2	X3	Y3	Z3	X4	Y4	Z4	X5	Y5	Z5	X6	Y6	Z6	X7	Y7	Z7	X8	Y8	Z8	X9	Y9	Z9	X10	Y10	Z10	X11	Y11	Z11	X12	Y12	Z12	X13	Y13	Z13	X14	Y14	Z14	X15	Y15	Z15	X16	Y16	Z16	X17	Y17	Z17	X18	Y18	Z18	X19	Y19	Z19	X20	Y20	Z20	X21	Y21	Z21	X22	Y22	Z22	X23	Y23	Z23	X24	Y24	Z24	X25	Y25	Z25	X26	Y26	Z26	X27	Y27	Z27	X28	Y28	Z28	X29	Y29	Z29	X30	Y30	Z30	X31	Y31	Z31	X32	Y32	Z32	X33	Y33	Z33	X34	Y34	Z34	X35	Y35	Z35	X36	Y36	Z36	X37	Y37	Z37	X38	Y38	Z38	X39	Y39	Z39	X40	Y40	Z40	X41	Y41	Z41	X42	Y42	Z42	X43	Y43	Z43	X44	Y44	Z44	X45	Y45	Z45	X46	Y46	Z46	X47	Y47	Z47	X48	Y48	Z48	X49	Y49	Z49	X50	Y50	Z50	X51	Y51	Z51	X52	Y52	Z52	X53	Y53	Z53	X54	Y54	Z54	X55	Y55	Z55	X56	Y56	Z56	X57	Y57	Z57	X58	Y58	Z58	X59	Y59	Z59

238	1.19	-251.77	1664.6	36.371	-247.64	1653.3	-62.622	-237.65	1400.4	15.511	-167.94	1244.8	27.476	-280.28	979.86	-145.16	-286.07	984.69	210.43	-362.06	1496.1	175.38	-393.04	1340.2	304.52	-383.59	1197.7	365.2	-324.88	1058	377.91	-280.19	950.57	303.62	-288	950.17	385.29	-241.37	873.97	349.46	-349.89	1452.2	-170.03	-395.29	1277.6	-247.56	-421.77	1113.2	-289.18	-404.51	973.49	-298.37	-353.71	849.85	-239.16	-402.07	834.67	-293.83	-346.99	764.03	-275.46	-347.77	593.12	254.94	-304.96	688.31	244.13	-352.05	481.07	94.805	-400.46	362.97	178.1	-547.57	273.12	159.33	-487.89	331.48	226.93	-474.48	318.04	168.76	-304.73	761.75	-167.73	-258.79	598.95	-141.57	-227.05	698.33	-140.21	-236.87	511.31	17.267	-184.72	396.17	-74.309	-220.47	304.38	-109.06	-191.03	313.99	-54.937	-139.16	37.446	-23.733	-360.93	677.97	256.69	-635.99	48.183	170.7	-660.57	82.513	130.08	-283.17	680.77	-154.29	-375.7	763.6	258.27	-370.26	491.16	251.04	-425.28	1118.9	271.4	-678.59	224.42	99.313	-206.86	25.644	-100.97	-391.95	1565.3	-71.615	-205.47	229.14	-38.141	-762.29	277.33	131.95	-88.022	30.553	-62.751	-260.01	514.24	-138.85	-502.99	1370.6	126.39	-543.72	1019.8	60.546	-434.43	1477.7	4.5853	-272.92	84.261	48.592	-498.72	1162.6	27.522	-529.15	1029.9	-23.689	-301.62	74.452	-36.051	-350.12	48.048	22.317	-384.02	1586.4	73.454	-479.85	1063.7	-187.89
239	1.195	-245.78	1665.6	36.176	-241.63	1654.6	-62.828	-231.78	1401.5	14.993	-162.14	1245.8	26.689	-274.6	981.07	-146.04	-280.1	985.98	209.95	-356.16	1497	174.99	-387.49	1340.8	303.82	-378.34	1198.2	364.37	-320.79	1057.8	377.34	-277.01	949.71	303.44	-284.91	949.64	385.08	-238.86	872.98	349.57	-344.06	1453.5	-170.58	-388.43	1278.6	-248.39	-413.48	1114.1	-290.36	-394.81	974.58	-299.81	-342.59	851.42	-240.95	-390.82	835.85	-295.59	-334.65	765.99	-277.67	-336.48	595.01	254.57	-294.9	690.74	243.7	-339.66	482.99	94.497	-386.9	364.9	177.55	-533.38	274.2	158.51	-474.12	332.76	226.31	-460.62	319.53	168.07	-300.53	762.12	-168.37	-255.93	598.97	-142.01	-223.37	698.07	-140.72	-234.97	511.16	16.944	-183.2	395.74	-74.547	-219.34	304.08	-109.24	-189.88	313.61	-55.11	-139.15	37.453	-23.798	-350.78	679.68	256.19	-618.72	49.891	170.05	-643.89	83.437	129.55	-279.63	681.01	-154.82	-366.69	765.11	257.62	-357.62	493.12	250.67	-420.59	1119.5	270.42	-664	224.7	98.435	-206.89	25.621	-101.03	-386	1566.7	-71.946	-204.71	228.84	-38.256	-748.56	276.48	130.97	-87.89	30.234	-62.925	-257.79	514.2	-139.17	-497.11	1371.5	125.65	-537.67	1020.9	59.801	-428.5	1478.9	4.1421	-272.77	84.304	48.592	-492.77	1163.8	26.711	-523.45	1031.1	-24.339	-301.47	74.541	-36.048	-350.05	48.203	22.351	-378.02	1587.5	73.137	-471.06	1063.8	-189.1
240	1.2	-239.81	1666.7	36.015	-235.64	1655.8	-62.999	-225.92	1402.6	14.507	-156.36	1246.8	25.942	-268.95	982.26	-146.93	-274.15	987.26	209.58	-350.29	1497.9	174.61	-381.93	1341.5	303.14	-373.11	1198.6	363.55	-316.74	1057.6	376.81	-273.85	948.87	303.3	-281.88	949.13	384.93	-236.38	872.03	349.74	-338.26	1454.8	-171.1	-381.58	1279.7	-249.2	-405.16	1115	-291.54	-385.07	975.71	-301.25	-331.43	853.04	-242.72	-379.5	837.07	-297.34	-322.27	768	-279.82	-325.26	596.98	254.18	-284.9	693.22	243.27	-327.39	484.96	94.182	-373.29	366.82	177.02	-519.01	275.06	157.71	-460.3	333.95	225.68	-446.66	320.91	167.4	-296.39	762.48	-168.99	-253.14	598.99	-142.44	-219.76	697.8	-141.24	-233.1	511.03	16.628	-181.74	395.32	-74.79	-218.26	303.78	-109.42	-188.77	313.24	-55.288	-139.14	37.458	-23.864	-340.68	681.45	255.69	-600.89	51.412	169.38	-626.73	84.031	129.01	-276.15	681.24	-155.35	-357.72	766.66	256.97	-345.07	495.12	250.28	-415.93	1120.2	269.46	-649.13	224.55	97.524	-206.92	25.596	-101.08	-380.06	1568	-72.245	-203.97	228.54	-38.379	-734.63	275.1	129.93	-87.767	29.927	-63.093	-255.64	514.17	-139.48	-491.24	1372.5	124.94	-531.62	1021.9	59.091	-422.59	1480	3.7166	-272.6	84.353	48.595	-486.84	1164.9	25.904	-517.78	1032.3	-24.951	-301.33	74.633	-36.043	-349.99	48.361	22.392	-372.04	1588.6	72.847	-462.25	1063.9	-190.32
241	1.205	-233.85	1667.8	35.887	-229.68	1657.1	-63.135	-220.1	1403.6	14.051	-150.6	1247.7	25.234	-263.35	983.44	-147.81	-268.23	988.53	209.31	-344.44	1498.7	174.25	-376.36	1342.1	302.48	-367.91	1198.9	362.74	-312.74	1057.4	376.32	-270.7	948.07	303.22	-278.88	948.64	384.81	-233.93	871.12	349.96	-332.47	1456	-171.61	-374.72	1280.7	-249.99	-396.81	1115.9	-292.71	-375.27	976.86	-302.68	-320.23	854.71	-244.45	-368.12	838.33	-299.08	-309.88	770.04	-281.9	-314.1	599.01	253.77	-274.98	695.75	242.83	-315.22	486.97	93.857	-359.65	368.73	176.52	-504.48	275.71	156.92	-446.44	335.04	225.05	-432.62	322.17	166.76	-292.31	762.82	-169.62	-250.41	598.99	-142.86	-216.22	697.52	-141.78	-231.26	510.9	16.319	-180.31	394.92	-75.036	-217.21	303.49	-109.6	-187.7	312.88	-55.468	-139.13	37.462	-23.933	-330.64	683.27	255.18	-582.55	52.738	168.72	-609.11	84.303	128.47	-272.74	681.46	-155.88	-348.81	768.26	256.33	-332.62	497.17	249.86	-411.29	1120.8	268.52	-633.99	224	96.587	-206.94	25.568	-101.14	-374.14	1569.4	-72.516	-203.26	228.26	-38.507	-720.49	273.18	128.81	-87.654	29.632	-63.254	-253.55	514.13	-139.78	-485.38	1373.4	124.25	-525.58	1022.9	58.42	-416.69	1481.1	3.3063	-272.43	84.408	48.601	-480.93	1166	25.102	-512.12	1033.5	-25.529	-301.19	74.728	-36.036	-349.92	48.523	22.44	-366.08	1589.7	72.583	-453.42	1064	-191.55
242	1.21	-227.92	1668.8	35.79	-223.73	1658.3	-63.237	-214.29	1404.7	13.623	-144.85	1248.7	24.563	-257.79	984.59	-148.7	-262.33	989.77	209.13	-338.61	1499.5	173.91	-370.79	1342.7	301.85	-362.73	1199.3	361.93	-308.78	1057.2	375.86	-267.56	947.29	303.18	-275.93	948.18	384.74	-231.5	870.24	350.23	-326.7	1457.2	-172.11	-367.87	1281.7	-250.78	-388.44	1116.8	-293.88	-365.43	978.04	-304.11	-309	856.43	-246.16	-356.67	839.64	-300.81	-297.47	772.13	-283.92	-303.01	601.09	253.34	-265.14	698.31	242.39	-303.16	489.01	93.517	-345.99	370.61	176.03	-489.79	276.15	156.16	-432.53	336.03	224.42	-418.5	323.31	166.14	-288.29	763.14	-170.23	-247.74	598.99	-143.28	-212.73	697.23	-142.32	-229.45	510.78	16.018	-178.93	394.52	-75.283	-216.2	303.22	-109.78	-186.66	312.53	-55.651	-139.12	37.466	-24.003	-320.66	685.13	254.68	-563.75	53.866	168.07	-591.08	84.265	127.93	-269.38	681.68	-156.41	-339.95	769.88	255.7	-320.28	499.25	249.41	-406.64	1121.4	267.62	-618.58	223.04	95.63	-206.97	25.539	-101.19	-368.24	1570.7	-72.762	-202.57	227.99	-38.639	-706.14	270.75	127.65	-87.55	29.35	-63.407	-251.52	514.09	-140.08	-479.54	1374.3	123.59	-519.55	1023.9	57.789	-410.81	1482.2	2.9091	-272.25	84.469	48.61	-475.03	1167	24.305	-506.48	1034.6	-26.074	-301.06	74.827	-36.027	-349.85	48.689	22.495	-360.14	1590.7	72.343	-444.57	1064.2	-192.8
243	1.215	-222.01	1669.8	35.725	-217.8	1659.6	-63.307	-208.5	1405.7	13.218	-139.1	1249.6	23.926	-252.26	985.71	-149.59	-256.45	990.97	209.03	-332.79	1500.3	173.58	-365.22	1343.3	301.23	-357.57	1199.7	361.13	-304.86	1057.1	375.44	-264.43	946.56	303.19	-273.01	947.75	384.7	-229.1	869.4	350.55	-320.94	1458.4	-172.58	-361.02	1282.7	-251.55	-380.05	1117.7	-295.06	-355.54	979.25	-305.52	-297.74	858.19	-247.82	-345.17	840.98	-302.52	-285.05	774.26	-285.86	-292	603.21	252.88	-255.38	700.89	241.94	-291.2	491.09	93.159	-332.3	372.46	175.56	-474.96	276.37	155.42	-418.6	336.91	223.79	-404.3	324.33	165.54	-284.32	763.45	-170.84	-245.11	598.99	-143.68	-209.3	696.93	-142.86	-227.65	510.66	15.725	-177.58	394.13	-75.528	-215.22	302.95	-109.95	-185.65	312.18	-55.833	-139.12	37.469	-24.074	-310.75	687.02	254.18	-544.52	54.796	167.44	-572.65	83.934	127.42	-266.08	681.9	-156.93	-331.16	771.52	255.08	-308.06	501.35	248.93	-401.98	1122	266.76	-602.92	221.7	94.662	-207	25.508	-101.24	-362.36	1572	-72.984	-201.9	227.73	-38.771	-691.57	267.83	126.44	-87.454	29.082	-63.553	-249.54	514.06	-140.38	-473.72	1375.2	122.94	-513.54	1024.9	57.201	-404.93	1483.3	2.5232	-272.07	84.534	48.621	-469.15	1168.1	23.517	-500.84	1035.8	-26.588	-300.93	74.93	-36.017	-349.78	48.857	22.557	-354.22	1591.7	72.125	-435.7	1064.3	-194.06
244	1.22	-216.11	1670.8	35.689	-211.89	1660.8	-63.346	-202.73	1406.6	12.835	-133.37	1250.5	23.32	-246.78	986.8	-150.49	-250.59	992.14	209.01	-326.99	1501	173.26	-359.65	1343.9	300.64	-352.44	1200.1	360.34	-300.98	1057	375.07	-261.31	945.86	303.24	-270.13	947.34	384.71	-226.72	868.6	350.9	-315.21	1459.6	-173.04	-354.17	1283.7	-252.32	-371.63	1118.6	-296.23	-345.6	980.49	-306.93	-286.45	860	-249.45	-333.61	842.37	-304.22	-272.61	776.42	-287.74	-281.09	605.37	252.4	-245.71	703.48	241.48	-279.34	493.19	92.777	-318.61	374.28	175.1	-459.99	276.4	154.69	-404.63	337.69	223.16	-390.03	325.23	164.96	-280.38	763.74	-171.43	-242.52	598.99	-144.08	-205.91	696.63	-143.41	-225.88	510.55	15.439	-176.26	393.76	-75.77	-214.27	302.7	-110.12	-184.66	311.85	-56.014	-139.11	37.472	-24.145	-300.92	688.93	253.69	-524.91	55.53	166.84	-553.86	83.33	126.92	-262.81	682.1	-157.45	-322.43	773.16	254.47	-295.95	503.45	248.42	-397.32	1122.7	265.93	-587.01	219.98	93.688	-207.03	25.477	-101.29	-356.48	1573.3	-73.186	-201.24	227.48	-38.903	-676.79	264.43	125.21	-87.364	28.828	-63.691	-247.6	514.02	-140.66	-467.91	1376	122.31	-507.55	1025.9	56.659	-399.07	1484.3	2.1469	-271.88	84.604	48.635	-463.29	1169.1	22.74	-495.22	1036.9	-27.076	-300.81	75.036	-36.006	-349.71	49.029	22.625	-348.31	1592.7	71.931	-426.82	1064.5	-195.34
245	1.225	-210.23	1671.8	35.682	-205.99	1662	-63.354	-196.97	1407.6	12.471	-127.64	1251.4	22.742	-241.34	987.85	-151.41	-244.75	993.25	209.04	-321.2	1501.7	172.96	-354.08	1344.4	300.08	-347.33	1200.4	359.55	-297.13	1056.8	374.72	-258.2	945.2	303.33	-267.28	946.96	384.74	-224.36	867.83	351.3	-309.49	1460.7	-173.48	-347.32	1284.7	-253.08	-363.18	1119.5	-297.41	-335.61	981.75	-308.33	-275.14	861.85	-251.04	-321.99	843.81	-305.9	-260.16	778.61	-289.54	-270.28	607.54	251.89	-236.13	706.07	241	-267.57	495.33	92.367	-304.93	376.05	174.65	-444.88	276.22	153.98	-390.63	338.35	222.52	-375.7	326.01	164.39	-276.49	764.02	-172.02	-239.97	598.98	-144.46	-202.56	696.33	-143.94	-224.12	510.44	15.162	-174.97	393.39	-76.006	-213.33	302.45	-110.29	-183.7	311.53	-56.191	-139.1	37.475	-24.217	-291.18	690.84	253.18	-504.97	56.072	166.28	-534.73	82.473	126.46	-259.58	682.31	-157.97	-313.77	774.81	253.88	-283.97	505.54	247.88	-392.65	1123.3	265.13	-570.86	217.91	92.715	-207.05	25.445	-101.34	-350.63	1574.5	-73.368	-200.58	227.24	-39.032	-661.78	260.59	123.97	-87.279	28.588	-63.823	-245.69	513.98	-140.94	-462.12	1376.9	121.69	-501.57	1026.9	56.163	-393.22	1485.3	1.7789	-271.69	84.678	48.651	-457.44	1170.1	21.977	-489.6	1038	-27.539	-300.69	75.145	-35.995	-349.63	49.204	22.698	-342.43	1593.6	71.759	-417.92	1064.6	-196.64
246	1.23	-204.37	1672.7	35.701	-200.12	1663.1	-63.333	-191.23	1408.5	12.123	-121.92	1252.2	22.188	-235.94	988.85	-152.33	-238.92	994.31	209.11	-315.43	1502.4	172.67	-348.52	1344.9	299.53	-342.25	1200.8	358.77	-293.32	1056.7	374.42	-255.1	944.57	303.45	-264.46	946.6	384.81	-222.03	867.09	351.72	-303.78	1461.8	-173.91	-340.47	1285.6	-253.83	-354.71	1120.4	-298.59	-325.57	983.02	-309.71	-263.8	863.73	-252.58	-310.32	845.28	-307.56	-247.7	780.83	-291.27	-259.59	609.72	251.36	-226.67	708.65	240.51	-255.91	497.49	91.926	-291.27	377.77	174.19	-429.65	275.87	153.29	-376.61	338.9	221.87	-361.31	326.68	163.84	-272.62	764.28	-172.58	-237.44	598.97	-144.84	-199.24	696.02	-144.47	-222.37	510.33	14.892	-173.7	393.02	-76.234	-212.4	302.21	-110.45	-182.75	311.21	-56.362	-139.09	37.479	-24.288	-281.54	692.75	252.68	-484.72	56.432	165.75	-515.28	81.388	126.02	-256.38	682.5	-158.48	-305.2	776.44	253.3	-272.11	507.61	247.3	-387.97	1123.9	264.38	-554.49	215.52	91.752	-207.08	25.413	-101.39	-344.78	1575.7	-73.533	-199.93	227.01	-39.157	-646.54	256.33	122.73	-87.197	28.362	-63.949	-243.81	513.94	-141.21	-456.34	1377.7	121.08	-495.62	1027.8	55.715	-387.38	1486.3	1.4184	-271.49	84.754	48.669	-451.6	1171.1	21.233	-483.98	1039.1	-27.978	-300.57	75.257	-35.984	-349.55	49.382	22.775	-336.56	1594.5	71.609	-409.01	1064.8	-197.96
